# xmcd
#
# Track frame offsets: 
#        150
#        16519
#        30668
#        47095
#        62178
#        76142
#        92324
#        111427
#        127652
#        140559
#        157295
#        173596
#        189664
#        208589
#        225442
#        241218
#        255415
#        273287
#        289186
#        305335
#
# Disc length: 4289 seconds
#
# Revision: 0
# Processed by: cddbd v1.5.1PL2 Copyright (c) Steve Scherf et al.
# Submitted via: ExactAudioCopy v0.95b3
#
DISCID=0210bf14
DTITLE=Alabama - For The Record D2
DYEAR=1998
DGENRE=Country
TTITLE0=Five O'clock
TTITLE1=Southern Star
TTITLE2=Can't Keep a Good Man Down
TTITLE3=Forty Hour Week
TTITLE4=Keepin' Up
TTITLE5=The Closer You Get
TTITLE6=Once Upon a Lifetime
TTITLE7=She and I
TTITLE8=Here We Are
TTITLE9=Touch Me When We're Dancing
TTITLE10=When We Make Love
TTITLE11=If I Had You
TTITLE12=There's No Way
TTITLE13=Then Again
TTITLE14=Give Me One More Shot
TTITLE15=Why Lady Why
TTITLE16=Lady Down On Love
TTITLE17=In Pictures
TTITLE18=Sad Looking Mood
TTITLE19=Jukebox in My Mind
EXTD=
EXTT0=
EXTT1=
EXTT2=
EXTT3=
EXTT4=
EXTT5=
EXTT6=
EXTT7=
EXTT8=
EXTT9=
EXTT10=
EXTT11=
EXTT12=
EXTT13=
EXTT14=
EXTT15=
EXTT16=
EXTT17=
EXTT18=
EXTT19=
PLAYORDER=
